PathFileType	4	(X/Y/Z)	C:\Users\Basilio\Documents\Thesis Gigler\squatting_fais\c3dfiles\058\SLS_front_pre1\markers_experimental.trc
DataRate	CameraRate	NumFrames	NumMarkers	Units	OrigDataRate	OrigDataStartFrame	OrigNumFrames
200.000000	200.000000	4	61	mm	200.000000	0	1204
Frame#	Time	FHD			LBHD			RBHD			C7			T10			CLAV			LSHO			LUUPA			LMUPA			LDUPA			LLEP			LMEP			LUL			LRFIN			RSHO			RUPA1			RMUPA			RDUPA			RLEP			RMEP			RRAD			RUL			RUFIN			LASI			RASI			USACR			LSACR			RSACR			LTHI1			LTHI2			LTHI3			LTHI4			LLFC			LMFC			LTIB1			LTIB2			LTIB3			LTIB4			LLMAL			LMMAL			LHEE			LMT1			LMT2			LMT5			RTHI			RTHI2			RTHI3			RTHI4			RLFC			RMFC			RTIB1			RTIB2			RTIB3			RTIB4			RLMAL			RMMAL			RHEE			RMT1			RMT2			RMT5			LRAD			
		X1	Y1	Z1	X2	Y2	Z2	X3	Y3	Z3	X4	Y4	Z4	X5	Y5	Z5	X6	Y6	Z6	X7	Y7	Z7	X8	Y8	Z8	X9	Y9	Z9	X10	Y10	Z10	X11	Y11	Z11	X12	Y12	Z12	X13	Y13	Z13	X14	Y14	Z14	X15	Y15	Z15	X16	Y16	Z16	X17	Y17	Z17	X18	Y18	Z18	X19	Y19	Z19	X20	Y20	Z20	X21	Y21	Z21	X22	Y22	Z22	X23	Y23	Z23	X24	Y24	Z24	X25	Y25	Z25	X26	Y26	Z26	X27	Y27	Z27	X28	Y28	Z28	X29	Y29	Z29	X30	Y30	Z30	X31	Y31	Z31	X32	Y32	Z32	X33	Y33	Z33	X34	Y34	Z34	X35	Y35	Z35	X36	Y36	Z36	X37	Y37	Z37	X38	Y38	Z38	X39	Y39	Z39	X40	Y40	Z40	X41	Y41	Z41	X42	Y42	Z42	X43	Y43	Z43	X44	Y44	Z44	X45	Y45	Z45	X46	Y46	Z46	X47	Y47	Z47	X48	Y48	Z48	X49	Y49	Z49	X50	Y50	Z50	X51	Y51	Z51	X52	Y52	Z52	X53	Y53	Z53	X54	Y54	Z54	X55	Y55	Z55	X56	Y56	Z56	X57	Y57	Z57	X58	Y58	Z58	X59	Y59	Z59	X60	Y60	Z60	X61	Y61	Z61	

1	0	-319.1165161132813	1803.458129882813	-610.6803588867189	-477.1047363281251	1757.96142578125	-684.4982910156251	-306.0481262207032	1809.421020507813	-752.2810668945314	-486.7828063964845	1586.876098632813	-699.9423828125001	-469.1315917968751	1279.559204101563	-691.1186523437501	-326.7937316894532	1551.44970703125	-684.1333007812501	-343.2824096679688	1598.46484375	-842.513122558594	-198.9834747314454	1509.06298828125	-962.3469848632815	-170.3069458007813	1547.869506835938	-946.7325439453127	-129.3550567626953	1508.041137695313	-965.7700805664065	-53.98006820678712	1510.087646484375	-959.497985839844	-47.62067031860352	1455.576049804688	-925.1953125000002	217.9032592773438	1540.39208984375	-938.104431152344	316.5938110351563	1542.518432617188	-859.9858398437502	-360.7969360351563	1594.568603515625	-526.2744140625001	-210.875717163086	1490.808227539063	-414.1596984863282	-184.2688293457032	1529.059326171875	-433.6996154785157	-141.4149475097657	1495.498901367188	-411.3829650878907	-74.81768798828126	1483.166015625	-414.8899536132814	-66.74404144287111	1427.385009765625	-467.438446044922	197.9389801025391	1506.443237304688	-491.8205566406251	196.8017730712891	1514.553466796875	-410.6218566894532	291.8717956542969	1524.797119140625	-475.1023254394532	-285.0581970214844	1117.575073242188	-847.7679443359377	-258.0873718261719	1086.589599609375	-609.0528564453126	-468.4515380859376	1155.25830078125	-692.7505493164064	-476.4917297363282	1125.40771484375	-722.7636108398439	-463.8486938476564	1120.435668945313	-666.9696044921876	-214.6166229248047	872.700134277344	-933.760925292969	-154.987533569336	814.1194458007815	-926.289733886719	-117.1995697021485	829.0404052734377	-895.206726074219	-156.5105895996094	753.9744262695314	-927.3588867187502	-110.4635162353516	663.8180541992189	-921.5115356445315	-102.8559722900391	648.5748901367189	-792.6804199218752	-4.221091270446778	561.8618774414064	-887.1918945312502	-28.07236289978028	512.8449707031251	-952.6653442382815	7.480598449707033	519.3873901367189	-925.3249511718752	43.45491409301759	444.7036132812501	-905.7940673828127	76.76390075683595	241.7830352783204	-942.068542480469	87.96447753906251	257.9195556640626	-850.6197509765627	37.88516235351563	176.866195678711	-897.6260375976565	236.8136444091797	266.6302185058594	-862.7131347656252	243.5888671875001	276.6582641601563	-908.2321777343752	214.0481414794922	239.3898315429688	-965.6485595703127	-351.4566955566407	863.189147949219	-560.4234008789064	-312.2003479003907	809.8008422851565	-563.6663818359376	-279.5829162597657	812.1324462890627	-566.5792236328126	-337.9621582031251	731.5000610351564	-584.3780517578126	-326.4792785644532	552.8817138671876	-615.5747070312501	-289.7930908203126	551.1271362304689	-747.7340087890626	-286.5514221191407	352.8416137695313	-716.5952758789064	-328.6500854492188	272.7576904296876	-656.8477783203126	-293.2533569335938	266.0740661621094	-689.0004272460939	-306.2915649414063	225.4212799072266	-727.9005126953126	-371.8525085449219	119.4298706054688	-694.8872680664064	-340.8722534179688	143.9764099121094	-781.4436035156252	-438.1649780273439	102.7906341552735	-757.6162109375001	-228.2099304199219	58.44053649902345	-770.8115844726565	-221.7281494140626	59.53068923950197	-718.5339965820314	-271.3948669433594	28.83574295043946	-666.2606201171876	nan	nan	nan	
2	0.005	-319.1364440917969	1803.444702148438	-610.6151733398439	-477.116424560547	1757.956420898438	-684.3467407226564	-306.1741943359376	1809.404541015625	-752.2545776367189	-486.8133850097657	1586.891357421875	-699.8070068359376	-469.1373596191407	1279.582275390625	-691.1206054687501	-326.8655395507813	1551.439453125	-684.0894775390626	-343.4043273925782	1598.443969726563	-842.4166259765627	-199.0681152343751	1509.079833984375	-962.275329589844	-170.3890533447266	1547.932373046875	-946.6907348632815	-129.5012512207032	1508.054931640625	-965.7263183593752	-54.12739944458009	1510.107299804688	-959.386657714844	-47.80755996704102	1455.43994140625	-925.0894775390627	217.789047241211	1540.393432617188	-937.9880371093752	316.5565795898438	1542.526123046875	-859.827575683594	-360.8144531250001	1594.550415039063	-526.1787719726564	-210.8909454345704	1490.757568359375	-414.1135864257814	-184.2909393310547	1529.005126953125	-433.6412048339845	-141.4373168945313	1495.490966796875	-411.3180541992189	-74.90376281738283	1483.129150390625	-414.801727294922	-66.75122070312501	1427.35498046875	-467.3912658691407	197.8153839111329	1506.387084960938	-491.7083435058595	196.8220977783204	1514.514282226563	-410.5603332519532	291.8619079589844	1524.756103515625	-474.9954528808595	-285.0580444335938	1117.575073242188	-847.7678833007815	-258.1194152832032	1086.610961914063	-609.0828247070314	-468.4039001464845	1155.278442382813	-692.8177490234376	-476.4917297363282	1125.40771484375	-722.7636108398439	-463.8486938476564	1120.435668945313	-666.9696044921876	-214.628402709961	872.7001953125002	-933.8120727539065	-154.9906768798828	814.1406860351565	-926.3135986328127	-117.2137145996094	829.0322265625002	-895.2442016601565	-156.4566802978516	753.9758300781251	-927.4060668945315	-110.430648803711	663.8483276367189	-921.513854980469	-102.7140426635742	648.5794067382814	-792.806579589844	-4.199363231658936	561.8655395507814	-887.2252197265627	-28.45772171020509	513.2374877929689	-952.7534790039065	7.473642826080324	518.8177490234376	-925.1352539062502	43.51597976684571	444.7125244140626	-905.925231933594	76.79585266113283	241.7554626464844	-942.1395263671877	88.04217529296876	257.9208374023438	-850.739440917969	37.86363601684571	176.8802490234375	-897.6985473632815	237.276840209961	267.2455749511719	-862.8472290039065	243.6895751953126	276.6636352539063	-908.4312744140627	214.0656433105469	239.4622497558594	-965.7954101562502	-351.6388549804688	863.2985839843752	-560.3939819335939	-312.3070983886719	809.8114013671877	-563.6443481445314	-279.6967163085938	812.1937255859377	-566.4783325195314	-338.0352478027344	731.5260009765626	-584.3639526367189	-326.5725402832032	552.8885498046876	-615.4924316406251	-289.7051391601563	551.1638793945314	-747.6422119140626	-286.5195617675782	352.8690185546876	-716.4372558593751	-328.6938781738282	272.7157287597657	-656.7577514648439	-293.3621520996094	265.9486694335938	-688.7953491210939	-306.2567749023438	225.4246063232422	-727.7758178710939	-371.9303588867188	119.3589096069336	-694.7781982421876	-340.7919921875001	143.9607849121094	-781.355895996094	-438.1768798828126	102.7878036499024	-757.5867309570314	-228.4632110595704	59.18403625488283	-770.6401367187502	-221.7718963623047	59.41374969482423	-718.4348754882814	-271.4173278808594	28.83117485046387	-666.1970825195314	nan	nan	nan	
3	0.01	-319.1028137207032	1803.482177734375	-610.5773315429689	-477.1669311523439	1757.998168945313	-684.2030029296876	-306.2485961914063	1809.3974609375	-752.1854858398439	-486.8803710937501	1586.908569335938	-699.6879272460939	-469.1373901367189	1279.582275390625	-691.1206054687501	-326.9486694335938	1551.448974609375	-683.9921264648439	-343.4106140136719	1598.4404296875	-842.337585449219	-199.2068023681641	1509.0830078125	-962.214538574219	-170.4272613525391	1547.928100585938	-946.591735839844	-129.5696105957032	1508.077758789063	-965.6204833984377	-54.20616912841798	1510.126953125	-959.3304443359377	-48.03867340087892	1455.453002929688	-924.900573730469	217.7102050781251	1540.404052734375	-937.8472900390627	315.6152954101563	1542.229614257813	-860.3583984375002	-360.8713684082032	1594.536010742188	-526.0676879882814	-210.8970947265626	1490.744995117188	-414.0172119140626	-184.3381805419922	1528.96142578125	-433.5535278320314	-141.42431640625	1495.489501953125	-411.2943115234376	-74.90654754638673	1483.083374023438	-414.7622375488282	-66.77999877929689	1427.282470703125	-467.3733825683595	197.9675445556641	1506.356689453125	-491.7135314941407	196.7400970458985	1514.466064453125	-410.4574279785157	291.8363647460938	1524.70703125	-474.9266357421876	-285.0581970214844	1117.575073242188	-847.7679443359377	-258.1380310058594	1086.647216796875	-609.0311279296876	-468.4421691894532	1155.27587890625	-692.8234863281251	-476.4711914062501	1125.407836914063	-722.7921142578126	-463.8513793945314	1120.448852539063	-666.9744873046876	-214.5412597656251	872.736022949219	-933.800231933594	-154.900634765625	814.1549072265627	-926.3501586914065	-117.17529296875	829.0450439453127	-895.1941528320315	-156.3879089355469	753.9789428710939	-927.4260253906252	-110.4313125610352	663.8494262695314	-921.5893554687502	-102.6623687744141	648.6002807617189	-792.8458251953127	-4.100881099700929	561.9124145507814	-887.3464355468752	-28.40591621398926	513.2471313476564	-952.8169555664065	7.465594768524172	518.7882690429689	-925.1990966796877	43.55638122558594	444.7285156250001	-906.0164184570315	76.80447387695314	241.7559661865235	-942.2568969726565	88.08943939208986	257.9186706542969	-850.8475341796877	37.89697647094727	176.8717193603516	-897.7976074218752	236.8267669677735	266.6471252441407	-863.032409667969	243.678939819336	276.7110900878907	-908.6528930664065	214.050277709961	239.4052886962891	-965.9717407226565	-351.7924499511719	863.4545898437502	-560.4838256835939	-312.4789123535157	809.865661621094	-563.5364379882814	-279.7995300292969	812.192810058594	-566.3961791992189	-338.1970520019532	731.6755981445314	-584.3120117187501	-326.6090087890626	552.8739013671876	-615.4125366210939	-289.6332092285157	551.1779174804689	-747.5222167968751	-286.3939819335938	352.9339599609376	-716.2407226562501	-328.7298583984376	272.7403259277344	-656.7276000976564	-293.4236450195313	266.0871887207032	-688.6033935546876	-306.2442321777344	225.4870147705079	-727.6548461914064	-371.9398193359376	119.3217315673828	-694.6918334960939	-340.7282714843751	143.9662322998047	-781.2575683593752	-438.1599121093751	102.8290176391602	-757.5411376953126	-228.203353881836	58.49152755737306	-770.7125244140627	-221.7227172851563	59.47397232055665	-718.4150390625001	-271.4135131835938	28.79585838317872	-666.1979370117189	nan	nan	nan	
4	0.015	-319.0897827148438	1803.496704101563	-610.5291748046876	-477.1762695312501	1758.00146484375	-684.0706176757814	-306.2578430175782	1809.421508789063	-752.1868896484376	-486.9085388183595	1586.928588867188	-699.6132202148439	-469.2227172851564	1279.583740234375	-691.1367797851564	-327.0201721191407	1551.438720703125	-683.9484252929689	-343.4783020019532	1598.484741210938	-842.2741699218752	-199.2422332763672	1509.092163085938	-962.1392211914065	-170.5536499023438	1547.967163085938	-946.5516357421877	-129.7252044677735	1508.1484375	-965.5728759765627	-54.28524398803712	1510.146606445313	-959.273864746094	-48.20643997192384	1455.518310546875	-924.8283691406252	217.6060791015626	1540.41259765625	-937.7095336914065	315.5093078613282	1542.217529296875	-860.1860961914065	-360.8962097167969	1594.495849609375	-525.9804077148439	-210.8937530517579	1490.684936523438	-413.9938964843751	-184.3488159179688	1528.956787109375	-433.4677734375001	-141.4405975341797	1495.4052734375	-411.2360229492189	-74.91235351562501	1483.05810546875	-414.6687622070314	-66.79722595214845	1427.271606445313	-467.3039550781251	197.9539489746094	1506.3056640625	-491.6294555664064	196.7176818847657	1514.46435546875	-410.4014587402345	291.8368225097657	1524.67431640625	-474.8990478515626	-285.0547790527344	1117.609375	-847.8005371093752	-258.1394958496094	1086.673217773438	-609.0458374023439	-468.4468994140626	1155.279052734375	-692.8916015625001	-476.4890136718751	1125.407592773438	-722.8369140625001	-463.8979797363282	1120.439331054688	-667.0194091796876	-214.5148620605469	872.762390136719	-933.841491699219	-154.8304443359375	814.185241699219	-926.3718261718752	-117.175163269043	829.0455322265627	-895.194519042969	-156.3396301269532	754.0039062500001	-927.464050292969	-110.2898941040039	663.9006347656251	-921.6715087890627	-102.6135177612305	648.5464477539064	-792.8647460937502	-3.891204833984376	561.9841308593751	-887.4558105468752	-28.39303207397462	513.2547607421876	-952.9480590820315	7.47134590148926	518.7633666992189	-925.272644042969	43.70638275146485	444.7618408203126	-906.1374511718752	76.80797576904298	241.7851104736329	-942.408142089844	88.12863159179689	257.9343566894532	-850.9844360351565	37.87943267822266	176.8262481689453	-897.8461914062502	236.8204498291016	266.6477050781251	-863.2930908203127	243.6786193847657	276.7241821289063	-908.861022949219	214.0363006591797	239.4360046386719	-966.1772460937502	-351.8574218750001	863.4621582031252	-560.4821777343751	-312.5420837402344	809.878112792969	-563.4748535156251	-280.0058593750001	812.210632324219	-566.2686157226564	-338.3088684082032	731.7246093750001	-584.2029418945314	-326.7080993652344	552.8850097656251	-615.3364868164064	-289.4889221191407	551.1579589843751	-747.3162841796876	-286.3509826660157	352.9371643066407	-716.0786743164064	-328.7773132324219	272.7445983886719	-656.6171875000001	-293.4938659667969	266.1385498046876	-688.4271850585939	-306.2314453125001	225.4593200683594	-727.5346679687501	-372.0158386230469	119.3093032836914	-694.5554809570314	-340.6967468261719	143.9640502929688	-781.1528930664065	-438.1676635742189	102.8503723144532	-757.4874877929689	-228.1633605957032	58.5254592895508	-770.6570434570315	-221.734603881836	59.41222381591798	-718.4084472656251	-271.4670104980469	28.71932601928712	-666.1324462890626	nan	nan	nan	
